# AST/ASF file generated using VICON BodyLanguage
# -----------------------------------------------
:version 1.10
:name VICON
:units
  mass 1.0
  length 0.45
  angle deg
:documentation
   .ast/.asf automatically generated from VICON data using
   VICON BodyBuilder and BodyLanguage model FoxedUp or BRILLIANT.MOD
:root
   order TX TY TZ RX RY RZ
   axis XYZ
   position 0 0 0  
   orientation 0 0 0 
:bonedata
  begin
     id 1 
     name lhipjoint
     direction 0.707368 -0.647095 0.284426 
     length 2.60678 
     axis 0 0 0  XYZ
  end
  begin
     id 2 
     name lfemur
     direction 0.34202 -0.939693 0  
     length 6.63812  
     axis 0 0 20  XYZ
    dof rx ry rz
    limits (-160.0 20.0)
           (-70.0 70.0)
           (-60.0 70.0)
  end
  begin
     id 3 
     name ltibia
     direction 0.34202 -0.939693 0   
     length 7.51178   
     axis 0 0 20   XYZ
    dof rx
    limits (-10.0 170.0)
  end
  begin
     id 4 
     name lfoot
     direction 0.121251 -0.333133 0.935051   
     length 1.83716   
     axis -90 7.62852e-016 20   XYZ
    dof rx rz
    limits (-45.0 90.0)
           (-70.0 20.0)
  end
  begin
     id 5 
     name ltoes
     direction 1.53611e-011 -4.21962e-011 1   
     length 0.916133   
     axis -90 7.62852e-016 20   XYZ
    dof rx
    limits (-90.0 20.0)
  end
  begin
     id 6 
     name rhipjoint
     direction -0.692419 -0.660507 0.290321   
     length 2.55385  
     axis 0 0 0  XYZ 
  end
  begin
     id 7 
     name rfemur
     direction -0.34202 -0.939693 0   
     length 7.29079   
     axis 0 0 -20   XYZ
    dof rx ry rz
    limits (-160.0 20.0)
           (-70.0 70.0)
           (-70.0 60.0)
  end
  begin
     id 8 
     name rtibia
     direction -0.34202 -0.939693 0   
     length 7.47143   
     axis 0 0 -20   XYZ
    dof rx
    limits (-10.0 170.0)
 end
 begin
     id 9 
     name rfoot
     direction -0.119907 -0.329441 0.936532   
     length 1.79439  
     axis -90 -7.62852e-016 -20   XYZ
    dof rx rz
    limits (-45.0 90.0)
           (-20.0 70.0)
  end
  begin
     id 10 
     name rtoes
     direction -1.53571e-011 -4.21961e-011 1   
     length 0.896039   
     axis -90 -7.62852e-016 -20   XYZ
    dof rx
    limits (-90.0 20.0)
  end
  begin
     id 11 
     name lowerback
     direction 0.0367721 0.992912 -0.113016   
     length 1.73542   
     axis 0 0 0   XYZ
    dof rx ry rz
    limits (-20.0 45.0)
           (-30.0 30.0)
           (-30.0 30.0)
  end
  begin
     id 12 
     name upperback
     direction -0.000314626 0.990678 0.136227   
     length 1.7514   
     axis 0 0 0   XYZ
    dof rx ry rz
    limits (-20.0 45.0)
           (-30.0 30.0)
           (-30.0 30.0)
  end
  begin
     id 13 
     name thorax
     direction -0.0226159 0.981151 0.191917   
     length 1.71471   
     axis 0 0 0   XYZ
    dof rx ry rz
    limits (-20.0 45.0)
           (-30.0 30.0)
           (-30.0 30.0)
  end
  begin
     id 14 
     name lowerneck
     direction 0.0219333 0.998071 0.0580739   
     length 1.65882   
     axis 0 0 0   XYZ
    dof rx ry rz
    limits (-20.0 45.0)
           (-30.0 30.0)
           (-30.0 30.0)
  end
  begin
     id 15 
     name upperneck
     direction 0.0384529 0.980058 -0.194957   
     length 1.6612   
     axis 0 0 0   XYZ
    dof rx ry rz
    limits (-20.0 45.0)
           (-30.0 30.0)
           (-30.0 30.0)
  end
  begin
     id 16
     name head
     direction 0.00592123 0.997421 -0.0715234  
     length 1.68077  
     axis 0 0 0   XYZ
    dof rx ry rz
    limits (-20.0 45.0)
           (-30.0 30.0)
           (-30.0 30.0)
  end
  begin
     id 17 
     name lclavicle
     direction 0.904803 0.417826 0.0821728  
     length 3.42227  
     axis 0 0 0   XYZ
    dof ry rz
    limits (-20.0 10.0)
           (0.0 20.0)
  end
  begin
     id 18 
     name lhumerus
     direction 1 -4.48965e-011 -2.68786e-027   
     length 5.11878   
     axis -180 -30 -90   XYZ
    dof rx ry rz
    limits (-60.0 90.0)
           (-90.0 90.0)
           (-90.0 90.0)
  end
  begin
     id 19
     name lradius
     direction 1 -4.48965e-011 2.61168e-028   
     length 3.59971   
     axis -180 -30 -90   XYZ
    dof rx
    limits (-10.0 170.0)
  end
  begin
     id 20
     name lwrist
     direction 1 -4.48965e-011 1.58672e-027   
     length 1.79985   
     axis -1.65735e-015 90 90   XYZ
    dof ry
    limits (-180.0 0.0)
 end
  begin
     id 21 
     name lhand
     direction 1 -4.48942e-011 3.17344e-027   
     length 0.62877   
     axis -2.02492e-015 90 90   XYZ
    dof rx rz
    limits (-90.0 90.0)
           (-45.0 45.0)
  end
  begin
     id 22 
     name lfingers
     direction 1 -4.49011e-011 6.34687e-027   
     length 0.506931   
     axis -4.04985e-015 90 90   XYZ
    dof rx
    limits (0.0 90.0)
  end
  begin
     id 23
     name lthumb
     direction 0.707107 -6.34982e-011 0.707107   
     length 0.727854   
     axis -90 45 2.85299e-015   XYZ
    dof rx rz
    limits (-45.0 45.0)
           (-45.0 45.0)
  end
  begin
     id 24 
     name rclavicle
     direction -0.945647 0.32488 0.0143075   
     length 3.52737  
     axis 0 0 0   XYZ 
    dof ry rz
    limits (-10.0 20.0)
           (-20.0 0.0)
  end
  begin
     id 25 
     name rhumerus
     direction -1 -4.48962e-011 1.92182e-027  
     length 5.4902   
     axis -180 30 90   XYZ
    dof rx ry rz
    limits (-90.0 60.0)
           (-90.0 90.0)
           (-90.0 90.0)
  end
  begin
     id 26 
     name rradius
     direction -1 -4.48967e-011 -5.97193e-028   
     length 3.20659   
     axis -180 30 90   XYZ
    dof rx
    limits (-10.0 170.0)
  end
  begin
     id 27 
     name rwrist
     direction -1 -4.48964e-011 1.58672e-027   
     length 1.6033   
     axis -1.65735e-015 -90 -90   XYZ
    dof ry
    limits (-180.0 0.0)
  end
  begin
     id 28
     name rhand
     direction -1 -4.49006e-011 3.17344e-027   
     length 0.691885   
     axis -2.02492e-015 -90 -90   XYZ
    dof rx rz
    limits (-90.0 90.0)
           (-45.0 45.0)
  end
  begin
     id 29
     name rfingers
     direction -1 -4.48908e-011 6.34687e-027   
     length 0.557815   
     axis -4.04985e-015 -90 -90   XYZ
    dof rx
    limits (0.0 90.0)
  end
  begin
     id 30
     name rthumb
     direction -0.707107 -6.34999e-011 0.707107   
     length 0.800915   
     axis -90 -45 -2.85299e-015   XYZ
    dof rx rz
    limits (-45.0 45.0)
           (-45.0 45.0)
  end
:hierarchy
  begin
    root lhipjoint rhipjoint lowerback
    lhipjoint lfemur
    lfemur ltibia
    ltibia lfoot
    lfoot ltoes
    rhipjoint rfemur
    rfemur rtibia
    rtibia rfoot
    rfoot rtoes
    lowerback upperback
    upperback thorax
    thorax lowerneck lclavicle rclavicle
    lowerneck upperneck
    upperneck head
    lclavicle lhumerus
    lhumerus lradius
    lradius lwrist
    lwrist lhand lthumb
    lhand lfingers
    rclavicle rhumerus
    rhumerus rradius
    rradius rwrist
    rwrist rhand rthumb
    rhand rfingers
  end

#!OML:ASF I:\Actors\actors\Patient Classification 1\Patient 1\Session 1\Subject1.ASF
:FULLY-SPECIFIED
:DEGREES
78
root 0.796647 17.4237 9.4304 10.5379 -3.46724 -9.5886
lowerback -1.70083 1.1139 6.39699
upperback -10.3193 1.93068 2.34456
thorax -9.91065 0.516953 -1.1884
lowerneck -0.908164 -14.1032 -13.435
upperneck 18.0347 -20.7346 10.9119
head 8.29582 -10.1726 3.7664
rclavicle -1.21259e-014 5.30755e-014
rhumerus -44.8547 -28.9687 -65.843
rradius 21.5524
rwrist 51.2032
rhand 3.45939 -31.6534
rfingers 7.12502
rthumb 28.8994 -59.4344
lclavicle -1.21259e-014 5.30755e-014
lhumerus -49.9638 34.0884 61.1809
lradius 21.0234
lwrist -32.9957
lhand -15.3186 -10.631
lfingers 7.12502
lthumb 10.8574 19.0684
rfemur -5.4946 26.7161 25.1093
rtibia 2.60908
rfoot -10.5804 -23.545
rtoes 3.36133
lfemur 4.63934 -41.5976 -11.7263
ltibia -4.47934
lfoot -19.7626 51.5128
ltoes 10.5151
79
root 0.796288 17.4236 9.43087 10.5207 -3.41117 -9.55242
lowerback -1.69875 1.12146 6.40264
upperback -10.3265 1.93958 2.31355
thorax -9.91816 0.518975 -1.22524
lowerneck -0.830133 -14.0968 -13.4194
upperneck 17.9604 -20.7433 10.9937
head 8.2657 -10.175 3.79676
rclavicle -4.82053e-015 2.38542e-014
rhumerus -44.6292 -28.658 -66.2295
rradius 21.7348
rwrist 50.6454
rhand 3.46218 -31.6068
rfingers 7.12502
rthumb 28.9021 -59.3873
lclavicle -4.82053e-015 2.38542e-014
lhumerus -49.9761 34.1112 61.1299
lradius 21.0016
lwrist -33.1166
lhand -15.2289 -10.7086
lfingers 7.12502
lthumb 10.944 18.9861
rfemur -5.46863 26.6826 25.0783
rtibia 2.6033
rfoot -10.6766 -23.5504
rtoes 3.59922
lfemur 4.64995 -41.6488 -11.7731
ltibia -4.49068
lfoot -19.8254 51.5097
ltoes 10.7498
80
root 0.795629 17.424 9.43194 10.5006 -3.31605 -9.5538
lowerback -1.68398 1.10768 6.42459
upperback -10.3375 1.92416 2.31223
thorax -9.94042 0.508752 -1.23803
lowerneck -0.749476 -14.0852 -13.4221
upperneck 17.8822 -20.7479 11.0959
head 8.23765 -10.1753 3.83689
rclavicle 4.62174e-015 -2.40529e-014
rhumerus -44.4371 -28.2771 -66.6457
rradius 22.0139
rwrist 50.0474
rhand 3.5503 -31.6247
rfingers 7.12502
rthumb 28.9863 -59.3908
lclavicle 4.62174e-015 -2.40529e-014
lhumerus -50.0377 34.1938 61.0399
lradius 20.9883
lwrist -33.3112
lhand -15.2025 -10.7542
lfingers 7.12502
lthumb 10.9695 18.9392
rfemur -5.41871 26.6266 25.1
rtibia 2.57012
rfoot -10.7597 -23.5709
rtoes 3.75389
lfemur 4.64095 -41.6885 -11.7555
ltibia -4.47735
lfoot -19.8753 51.4396
ltoes 10.8382
81
root 0.793002 17.4246 9.43287 10.4954 -3.21818 -9.5687
lowerback -1.69164 1.06227 6.38876
upperback -10.3414 1.8652 2.36219
thorax -9.94664 0.48543 -1.16087
lowerneck -0.771246 -14.0727 -13.3262
upperneck 17.8842 -20.7036 10.9575
head 8.20995 -10.1569 3.78539
rclavicle -4.91992e-015 -1.39149e-014
rhumerus -44.2306 -27.9134 -67.0088
rradius 22.2796
rwrist 49.5857
rhand 3.62389 -31.518
rfingers 7.12502
rthumb 29.0566 -59.272
lclavicle -4.91992e-015 -1.39149e-014
lhumerus -50.0378 34.1478 61.1634
lradius 21.0263
lwrist -33.2654
lhand -15.2799 -10.6214
lfingers 7.12502
lthumb 10.8948 19.0759
rfemur -5.3884 26.5867 25.1425
rtibia 2.55385
rfoot -10.7594 -23.6253
rtoes 3.69031
lfemur 4.59955 -41.706 -11.6925
ltibia -4.45902
lfoot -19.7777 51.3824
ltoes 10.6452
82
root 0.789967 17.4252 9.43329 10.4885 -3.13295 -9.5626
lowerback -1.70593 1.00648 6.31895
upperback -10.3378 1.78987 2.41382
thorax -9.94152 0.457479 -1.06203
lowerneck -0.781557 -14.0417 -13.2204
upperneck 17.9031 -20.6335 10.8021
head 8.17961 -10.1273 3.73168
rclavicle -7.8023e-015 4.13472e-014
rhumerus -43.9744 -27.5607 -67.3788
rradius 22.452
rwrist 49.1353
rhand 3.48627 -31.3847
rfingers 7.12502
rthumb 28.9251 -59.1613
lclavicle -7.8023e-015 4.13472e-014
lhumerus -49.9618 33.9931 61.4211
lradius 21.059
lwrist -33.0939
lhand -15.3993 -10.4194
lfingers 7.12502
lthumb 10.7796 19.284
rfemur -5.37277 26.5562 25.16
rtibia 2.55406
rfoot -10.7614 -23.676
rtoes 3.67707
lfemur 4.53458 -41.6314 -11.6423
ltibia -4.42882
lfoot -19.4714 51.2952
ltoes 10.2041
83
root 0.786604 17.4259 9.43308 10.4835 -3.02826 -9.5662
lowerback -1.71513 0.953792 6.25547
upperback -10.3404 1.71903 2.45413
thorax -9.94546 0.430286 -0.979107
lowerneck -0.717437 -13.9966 -13.255
upperneck 17.9013 -20.6055 10.9445
head 8.18369 -10.1095 3.79075
rclavicle -1.59525e-014 4.59193e-014
rhumerus -43.7096 -27.1987 -67.7952
rradius 22.6194
rwrist 48.606
rhand 3.36647 -31.4599
rfingers 7.12502
rthumb 28.8107 -59.2561
lclavicle -1.59525e-014 4.59193e-014
lhumerus -49.6585 33.5027 62.1132
lradius 21.2592
lwrist -32.7419
lhand -15.3318 -8.84306
lfingers 7.12502
lthumb 10.8447 20.8569
rfemur -5.36157 26.5394 25.1931
rtibia 2.5604
rfoot -10.8001 -23.7554
rtoes 3.79707
lfemur 4.4511 -41.5367 -11.557
ltibia -4.40395
lfoot -19.1021 51.1729
ltoes 9.71905
84
root 0.782484 17.4255 9.43322 10.4893 -2.89933 -9.57603
lowerback -1.75374 0.909631 6.17907
upperback -10.3425 1.65639 2.4909
thorax -9.93045 0.408643 -0.892958
lowerneck -0.65652 -13.9991 -13.2976
upperneck 17.9021 -20.6486 11.1045
head 8.20156 -10.1243 3.84574
rclavicle 1.51076e-014 1.78906e-014
rhumerus -43.4816 -26.9187 -68.1565
rradius 22.8084
rwrist 48.129
rhand 3.46035 -31.6501
rfingers 7.12502
rthumb 28.9004 -59.431
lclavicle 1.51076e-014 1.78906e-014
lhumerus -49.7408 33.6364 61.8871
lradius 20.9535
lwrist -33.086
lhand -15.6491 -10.5375
lfingers 7.12502
lthumb 10.5386 19.1783
rfemur -5.34802 26.5268 25.2353
rtibia 2.55343
rfoot -10.828 -23.8532
rtoes 3.92325
lfemur 4.37307 -41.543 -11.4538
ltibia -4.40225
lfoot -18.9644 51.0798
ltoes 9.53196
85
root 0.778757 17.4244 9.43318 10.4873 -2.75655 -9.59801
lowerback -1.78831 0.861397 6.12823
upperback -10.3319 1.58895 2.5278
thorax -9.90342 0.382891 -0.820717
lowerneck -0.642426 -14.0289 -13.3114
upperneck 17.9311 -20.7122 11.1791
head 8.22731 -10.1502 3.86257
rclavicle 1.54555e-014 2.18663e-015
rhumerus -43.2667 -26.6755 -68.4956
rradius 22.9899
rwrist 47.699
rhand 3.59247 -31.7958
rfingers 7.12502
rthumb 29.0265 -59.5549
lclavicle 1.54555e-014 2.18663e-015
lhumerus -49.5013 33.251 62.3673
lradius 20.9345
lwrist -32.7943
lhand -15.7137 -10.8863
lfingers 7.12502
lthumb 10.4763 18.8326
rfemur -5.33192 26.4818 25.2912
rtibia 2.55473
rfoot -10.8673 -23.8995
rtoes 4.13661
lfemur 4.28558 -41.5038 -11.3299
ltibia -4.38809
lfoot -18.8719 50.9211
ltoes 9.43331
86
root 0.775418 17.4245 9.43227 10.469 -2.62367 -9.66551
lowerback -1.77902 0.806159 6.12319
upperback -10.3198 1.51887 2.58132
thorax -9.90116 0.352092 -0.756465
lowerneck -0.660908 -14.0459 -13.309
upperneck 18.0173 -20.7524 11.2065
head 8.26775 -10.1648 3.86217
rclavicle 1.33683e-014 -1.94809e-014
rhumerus -43.0728 -26.4908 -68.7881
rradius 23.1003
rwrist 47.3874
rhand 3.59107 -31.8626
rfingers 7.12502
rthumb 29.0252 -59.6221
lclavicle 1.33683e-014 -1.94809e-014
lhumerus -49.3807 33.0405 62.6695
lradius 20.9116
lwrist -32.8146
lhand -15.661 -11.2878
lfingers 7.12502
lthumb 10.5272 18.4286
rfemur -5.32579 26.4383 25.4056
rtibia 2.60684
rfoot -10.9016 -23.9271
rtoes 4.30346
lfemur 4.20605 -41.406 -11.1585
ltibia -4.36884
lfoot -18.7182 50.7257
ltoes 9.28449
